<svg width="487" height="313" viewBox="0 0 487 313" fill="none" xmlns="http://www.w3.org/2000/svg">
<path d="M36.5 272.5H73.5M36.5 272.5V313M36.5 272.5V206.5M36.5 0V31M120.5 272.5H144.5M190.5 272.5H219L223.619 264.5M36.5 31H219L223.619 39M36.5 31V65M223.619 39L238.63 65H279.5L294.511 39M223.619 39H294.511M294.511 39L299.13 31H440.5L479 69.5V234L440.5 272.5H299.13L294.511 264.5M223.619 264.5L238.63 238.5H279.5L294.511 264.5M223.619 264.5H294.511M36.5 206.5H8V155H36.5M36.5 206.5V155M36.5 155V113M36.5 113H8V65H36.5M36.5 113V65M223.619 150.5C223.619 129.95 217.339 112.455 205.107 100.5M223.619 150.5C223.619 170.064 218.304 187.74 207.39 200.5M223.619 150.5C215.714 142.1 189.579 145.667 177.5 148.5M177.5 148.5C177.5 142.724 176.314 138.505 174.198 135.5M177.5 148.5C177.5 154.335 175.788 159.062 172.905 162.5M174.198 135.5C170.82 130.702 165.072 129 158 129C156.814 129 155.645 129.085 154.5 129.252M174.198 135.5C176.37 130.167 185.592 115.7 205.107 100.5M205.107 100.5C194.124 89.7667 178.343 83.5 158 83.5C156.822 83.5 155.656 83.5225 154.5 83.5671M154.5 129.252C153.833 127.213 152.9 115.221 154.5 83.5671M154.5 129.252C148.411 130.143 143.037 133.363 139.781 138.5M154.5 83.5671C134.385 84.3438 117.653 91.8228 105.819 104M139.781 138.5C137.713 141.762 136.5 145.797 136.5 150.5C136.5 152.07 136.743 153.575 137.189 155M139.781 138.5C130.233 133.833 110.075 120.4 105.819 104M105.819 104C93.809 116.359 86.8449 133.557 86.5125 153.5M137.189 155C126.801 158.667 102.122 163.5 86.5125 153.5M137.189 155C138.399 158.863 141.101 162.14 144.5 164.55M86.5125 153.5C86.5042 153.998 86.5 154.498 86.5 155C86.5 173.085 94.5119 191.052 109 203.662M144.5 164.55C148.472 167.367 153.395 169 158 169C158.505 169 159.006 168.984 159.5 168.953M144.5 164.55C141.5 174.142 130.2 195.392 109 203.662M109 203.662C121.109 214.202 137.741 221 158 221C158.503 221 159.003 220.996 159.5 220.988M159.5 168.953C162.667 179.794 167.1 205.378 159.5 220.988M159.5 168.953C164.935 168.607 169.661 166.37 172.905 162.5M159.5 220.988C180.917 220.643 196.793 212.889 207.39 200.5M172.905 162.5C179.53 167.333 195.703 181.7 207.39 200.5M446.619 150.5C446.619 129.95 440.339 112.455 428.107 100.5M446.619 150.5C446.619 170.064 441.304 187.74 430.39 200.5M446.619 150.5C438.714 142.1 412.579 145.667 400.5 148.5M400.5 148.5C400.5 142.724 399.314 138.505 397.198 135.5M400.5 148.5C400.5 154.335 398.788 159.062 395.905 162.5M397.198 135.5C393.82 130.702 388.072 129 381 129C379.814 129 378.645 129.085 377.5 129.252M397.198 135.5C399.37 130.167 408.592 115.7 428.107 100.5M428.107 100.5C417.124 89.7667 401.343 83.5 381 83.5C379.822 83.5 378.656 83.5225 377.5 83.5671M377.5 129.252C376.833 127.213 375.9 115.221 377.5 83.5671M377.5 129.252C371.411 130.143 366.037 133.363 362.781 138.5M377.5 83.5671C357.385 84.3438 340.653 91.8228 328.819 104M362.781 138.5C360.713 141.762 359.5 145.797 359.5 150.5C359.5 152.07 359.743 153.575 360.189 155M362.781 138.5C353.233 133.833 333.075 120.4 328.819 104M328.819 104C316.809 116.359 309.845 133.557 309.512 153.5M360.189 155C349.801 158.667 325.122 163.5 309.512 153.5M360.189 155C361.399 158.863 364.101 162.14 367.5 164.55M309.512 153.5C309.504 153.998 309.5 154.498 309.5 155C309.5 173.085 317.512 191.052 332 203.662M367.5 164.55C371.472 167.367 376.395 169 381 169C381.505 169 382.006 168.984 382.5 168.953M367.5 164.55C364.5 174.142 353.2 195.392 332 203.662M332 203.662C344.109 214.202 360.741 221 381 221C381.503 221 382.003 220.996 382.5 220.988M382.5 168.953C385.667 179.794 390.1 205.378 382.5 220.988M382.5 168.953C387.935 168.607 392.661 166.37 395.905 162.5M382.5 220.988C403.917 220.643 419.793 212.889 430.39 200.5M395.905 162.5C402.53 167.333 418.703 181.7 430.39 200.5" stroke="black" stroke-width="16"/>
</svg>
