<svg width="27" height="30" viewBox="0 0 27 30" fill="none" xmlns="http://www.w3.org/2000/svg">
<path d="M18.0534 3.34608C14.8608 -3.03913 11.5898 1.35774 10.6437 3.13181C9.6975 4.90589 9.12247 5.92686 12.7721 7.3886C16.4217 8.85035 18.7947 9.71442 19.1573 11.6454C19.5198 13.5764 18.7913 20.1058 19.1574 22.2874C19.5234 24.4691 20.5186 24.4158 22.7046 24.4158C24.8906 24.4158 25.8897 24.8039 26.2519 22.2874C26.6142 19.7709 27.0636 9.66033 25.1481 9.0218C23.2325 8.38328 21.246 9.73128 18.0534 3.34608Z" fill="black"/>
<path d="M8.51361 8.51358C5.321 2.12837 1.65722 6.71407 0.711048 8.48814C-0.235121 10.2622 -0.810146 11.2832 2.83945 12.7449C6.48905 14.2067 8.86213 15.0707 9.22466 17.0017C9.58718 18.9327 8.85867 25.4621 9.22475 27.6437C9.59083 29.8254 10.586 29.7721 12.772 29.7721C14.958 29.7721 15.9571 30.1602 16.3193 27.6437C16.6816 25.1272 17.5238 14.8278 15.6083 14.1893C13.6927 13.5508 11.7062 14.8988 8.51361 8.51358Z" fill="black"/>
</svg>
